<svg width="512" height="512" fill="none" xmlns="http://www.w3.org/2000/svg"><path d="M0 0h512v512H0V0z" fill="#6DA544"/><path d="M256 100.2L467.5 256 256 411.8 44.5 256 256 100.2z" fill="#FFDA44"/><path d="M174.2 221a87.01 87.01 0 00-7.2 36.3l162 49.8a88.5 88.5 0 0014.4-34c-40.6-65.3-119.7-80.3-169.1-52l-.1-.1z" fill="#EEE"/><path d="M255.7 167a89.009 89.009 0 00-41.9 10.6 89 89 0 00-39.6 43.4 181.697 181.697 0 01169.1 52.2 89.003 89.003 0 00-9-59.4 89.006 89.006 0 00-78.6-46.8zM212 250.5a148.987 148.987 0 00-45 6.8 89.002 89.002 0 0010.5 40.9 89.006 89.006 0 0052.798 43.091A89.008 89.008 0 00298.1 334.4a88.994 88.994 0 0030.7-27.3A150.996 150.996 0 00212 250.5z" fill="#0052B4"/></svg>
